<svg xmlns="http://www.w3.org/2000/svg" width="17.5" height="14.802" viewBox="0 0 17.5 14.802">
  <g id="return" transform="translate(0.25 0.256)">
    <path id="Shape" d="M0,7.151c0-.012.007-.022.007-.035A.692.692,0,0,1,.2,6.64a.661.661,0,0,1,.081-.054L6.6.216A.695.695,0,0,1,7.781.525a.706.706,0,0,1-.192.684L2.4,6.437H16.292a.714.714,0,0,1,0,1.428H2.4L7.59,13.092a.7.7,0,0,1-.312,1.174.693.693,0,0,1-.673-.182L.283,7.714A.664.664,0,0,1,.2,7.66a.693.693,0,0,1-.2-.476C.007,7.173,0,7.162,0,7.151Z" fill="#323232" stroke="#323232" stroke-miterlimit="10" stroke-width="0.5"/>
  </g>
</svg>
