<svg xmlns="http://www.w3.org/2000/svg" width="22" height="13.052" viewBox="0 0 22 13.052">
  <path id="Path_182" data-name="Path 182" d="M28.146,31.169l.354-.455-.379-.48c-3.338-4.1-6.929-6.145-10.722-6.044-6.145.152-10.368,5.841-10.545,6.094l-.354.455.379.455c3.262,4.021,6.8,6.044,10.494,6.044h.253C23.746,37.086,27.969,31.4,28.146,31.169Zm-10.6,4.577c-3.136.076-6.221-1.618-9.129-5.032,1.087-1.29,4.577-4.906,9.028-5.007,3.161-.076,6.221,1.618,9.129,5.032C25.491,32,22,35.645,17.551,35.746ZM17.5,27.022a3.692,3.692,0,1,0,3.692,3.692A3.7,3.7,0,0,0,17.5,27.022Zm0,5.892a2.2,2.2,0,1,1,2.2-2.2A2.2,2.2,0,0,1,17.5,32.914Z" transform="translate(-6.5 -24.186)" fill="#323232"/>
</svg>
