<svg xmlns="http://www.w3.org/2000/svg" width="21.777" height="24" viewBox="0 0 21.777 24">
  <g id="bell" transform="translate(-274 -64)">
    <path id="Path_88" data-name="Path 88" d="M22.521,34.033a.933.933,0,0,0,.8.433h3.7a4.533,4.533,0,0,0,9.067,0h3.7a.933.933,0,0,0,.8-.433,1.033,1.033,0,0,0,.133-.933l-2.667-7.033V23.5a6.5,6.5,0,0,0-13,0v2.567L22.387,33.1a1.033,1.033,0,0,0,.133.933ZM31.554,37a2.533,2.533,0,0,1-2.533-2.533h5.067A2.533,2.533,0,0,1,31.554,37ZM26.987,26.6a1.2,1.2,0,0,0,.067-.367V23.5a4.5,4.5,0,0,1,9,0v2.733a1.2,1.2,0,0,0,.067.367l2.2,5.867H24.787Z" transform="translate(255 47)" fill="#323232"/>
    <circle id="Ellipse_66" data-name="Ellipse 66" cx="5" cy="5" r="5" transform="translate(274 78)" fill="#fe1d61"/>
  </g>
</svg>
