<svg xmlns="http://www.w3.org/2000/svg" width="22" height="21.496" viewBox="0 0 22 21.496">
  <g id="settings" transform="translate(-4919.287 -702)">
    <path id="Path_86" data-name="Path 86" d="M42.082,38.694a3.867,3.867,0,0,0-2.757,1.278,3.733,3.733,0,0,0-1.042,2.858,3.968,3.968,0,0,0,1.244,2.757,4.035,4.035,0,0,0,2.69,1.042h.168a3.968,3.968,0,0,0,3.8-4.136,3.867,3.867,0,0,0-1.278-2.757A3.934,3.934,0,0,0,42.082,38.694Zm.235,5.918a2.018,2.018,0,0,1-1.412-.538,1.816,1.816,0,0,1-.605-1.345,1.782,1.782,0,0,1,.5-1.379,1.883,1.883,0,0,1,1.345-.639h.067a1.95,1.95,0,0,1,1.95,1.883,1.917,1.917,0,0,1-1.849,2.018Z" transform="translate(4888.071 670.276)" fill="#323232"/>
    <path id="Path_87" data-name="Path 87" d="M36.425,22.185l-2.32.1a7.465,7.465,0,0,0-1.412-.975l-.874-2.354a.942.942,0,0,0-.673-.605,10.9,10.9,0,0,0-3.3-.37,12.576,12.576,0,0,0-2.219.3,1.042,1.042,0,0,0-.74.706l-.572,2.085a9.684,9.684,0,0,0-2.354,1.681l-2.32.1a1.009,1.009,0,0,0-.807.5,10.929,10.929,0,0,0-1.547,4.876.975.975,0,0,0,.437.908l1.816,1.211a8.978,8.978,0,0,0,1.211,3.363l-.572,2.051a.975.975,0,0,0,.269.975,11.467,11.467,0,0,0,4.338,2.724h.3a1.11,1.11,0,0,0,.639-.2l1.816-1.446a5.918,5.918,0,0,0,1.11.034,8.81,8.81,0,0,0,1.782-.269l1.782,1.244a.975.975,0,0,0,1.009.034,11.3,11.3,0,0,0,4.17-3.6,1.042,1.042,0,0,0,.1-.942L36.66,32a11.8,11.8,0,0,0,.4-1.648l1.849-1.446a1.076,1.076,0,0,0,.37-.908,11.029,11.029,0,0,0-1.984-5.38,1.076,1.076,0,0,0-.874-.437Zm-.942,6.826a1.11,1.11,0,0,0-.37.706,7.263,7.263,0,0,1-.471,1.917.874.874,0,0,0,0,.706l.773,2.186a9.382,9.382,0,0,1-2.589,2.287l-1.681-1.143a.908.908,0,0,0-.841-.1,5.784,5.784,0,0,1-1.715.3,6.725,6.725,0,0,1-1.211-.067.975.975,0,0,0-.74.2l-1.715,1.345A8.777,8.777,0,0,1,22.3,35.737l.538-1.917a1.042,1.042,0,0,0-.168-.874,6.961,6.961,0,0,1-1.177-3.262,1.076,1.076,0,0,0-.437-.74L19.376,27.8a8.978,8.978,0,0,1,.908-2.925l2.186-.1a.942.942,0,0,0,.706-.336,7.1,7.1,0,0,1,2.387-1.715,1.076,1.076,0,0,0,.572-.639l.538-1.95A8.238,8.238,0,0,1,27.951,20a9.718,9.718,0,0,1,2.186.168l.807,2.219a1.042,1.042,0,0,0,.471.538,7.532,7.532,0,0,1,1.614,1.11,1.042,1.042,0,0,0,.74.3l2.186-.1a8.978,8.978,0,0,1,1.244,3.43Z" transform="translate(4902 684.027)" fill="#323232"/>
  </g>
</svg>
