<svg xmlns="http://www.w3.org/2000/svg" width="18" height="20.919" viewBox="0 0 18 20.919">
  <g id="delete" transform="translate(-359.33 82)">
    <path id="Path_38" data-name="Path 38" d="M32.92,19h.534a.876.876,0,0,0,0-1.752H29.373l-.391-1.358A2.336,2.336,0,0,0,26.736,14.2H23.921a2.336,2.336,0,0,0-2.245,1.693l-.391,1.37H17.206a.876.876,0,0,0,0,1.752h.531L18.9,31.661a3.778,3.778,0,0,0,3.8,3.457h5.256a3.778,3.778,0,0,0,3.8-3.457Zm-9.557-2.628a.584.584,0,0,1,.561-.423h2.812a.584.584,0,0,1,.561.423l.254.876H23.106ZM30,31.513a2.044,2.044,0,0,1-2.044,1.854H22.7a2.044,2.044,0,0,1-2.044-1.854L19.489,19h11.68Z" transform="translate(343 -96.2)" fill="#323232"/>
    <path id="Path_43" data-name="Path 43" d="M47.07,46.79a1.07,1.07,0,0,0,1.07-1.07V37.99a1.07,1.07,0,1,0-2.14,0v7.73A1.07,1.07,0,0,0,47.07,46.79Z" transform="translate(319.228 -112.297)" fill="#323232"/>
    <path id="Path_44" data-name="Path 44" d="M58.07,46.79a1.07,1.07,0,0,0,1.07-1.07V37.99a1.07,1.07,0,1,0-2.14,0v7.73A1.07,1.07,0,0,0,58.07,46.79Z" transform="translate(312.295 -112.297)" fill="#323232"/>
  </g>
</svg>
