<svg xmlns="http://www.w3.org/2000/svg" width="22.011" height="26.5" viewBox="0 0 22.011 26.5">
  <g id="card" transform="translate(-323 -61.5)">
    <g id="Group_29" data-name="Group 29" transform="translate(310 57.2)">
      <g id="Group_28" data-name="Group 28" transform="translate(16.972 4.8)">
        <path id="Path_9" data-name="Path 9" d="M25.741,4.8a3.376,3.376,0,0,0-3.372,3.372V9.1H20.431a2.366,2.366,0,0,0-2.336,2.177L16.98,26.3a2.319,2.319,0,0,0,2.336,2.5h12.85a2.393,2.393,0,0,0,1.726-.743A2.27,2.27,0,0,0,34.5,26.3L33.387,11.278A2.347,2.347,0,0,0,31.051,9.1H29.112V8.172A3.376,3.376,0,0,0,25.741,4.8Zm-2.31,3.372a2.31,2.31,0,1,1,4.619,0V9.1H23.431Zm7.619,1.991a1.3,1.3,0,0,1,1.274,1.195L33.44,26.384a1.3,1.3,0,0,1-.345.956,1.245,1.245,0,0,1-.929.4H19.316a1.205,1.205,0,0,1-.929-.4,1.3,1.3,0,0,1-.345-.956l1.115-15.027a1.3,1.3,0,0,1,1.274-1.195h1.938v1.885a.531.531,0,0,0,1.062,0V10.163h4.646v1.885a.531.531,0,1,0,1.062,0V10.163Z" transform="translate(-16.972 -4.8)" fill="#323232" stroke="#323232" stroke-width="1"/>
      </g>
    </g>
    <circle id="Ellipse_2" data-name="Ellipse 2" cx="5" cy="5" r="5" transform="translate(323 78)" fill="#fe1d61"/>
  </g>
</svg>
