<svg id="Group_309" data-name="Group 309" xmlns="http://www.w3.org/2000/svg" width="18" height="20" viewBox="0 0 18 20">
  <g id="Group_307" data-name="Group 307">
    <path id="Path_170" data-name="Path 170" d="M281.545,738.667H268.455a.826.826,0,0,0-.818.833v15l6.91-4.167a.862.862,0,0,1,.908,0l6.91,4.167v-15h0A.826.826,0,0,0,281.545,738.667ZM275,752l-7.728,4.869a.821.821,0,0,1-1.272-.64V738.667A1.776,1.776,0,0,1,267.636,737h14.727A1.776,1.776,0,0,1,284,738.667v17.563a.821.821,0,0,1-1.272.64Z" transform="translate(-266 -737)" fill="#323232"/>
  </g>
</svg>
