<svg xmlns="http://www.w3.org/2000/svg" width="24" height="20" viewBox="0 0 24 20">
  <path id="Statistics" d="M16.736,30.3H3.079a.891.891,0,0,1-.879-.882v-8.06a.891.891,0,0,1,.879-.882H8.15a.891.891,0,0,1,.879.882v4.156a.879.879,0,1,1-1.757,0V22.24H3.957v6.322h11.9V17.428a1,1,0,0,1,.251-.63.8.8,0,0,1,.628-.252h8.586a.891.891,0,0,1,.879.882v11.99a.891.891,0,0,1-.879.882H20.275a.891.891,0,0,1-.879-.882v-8.06a.879.879,0,1,1,1.757,0v7.2h3.314V18.31H17.614V29.418A.875.875,0,0,1,16.736,30.3Zm0-15.819a.891.891,0,0,0,.879-.882V11.182a.891.891,0,0,0-.879-.882H11.664a.891.891,0,0,0-.879.882V25.514a.879.879,0,1,0,1.757,0V12.063h3.314V13.6A.875.875,0,0,0,16.736,14.481Z" transform="translate(-2.2 -10.3)" fill="#323232"/>
</svg>
