<svg version="1.2" xmlns="http://www.w3.org/2000/svg" viewBox="0 0 357 14" width="357" height="14">
	<title>timeline-svg</title>
	<style>
		tspan { white-space:pre } 
		.s0 { opacity: .1;fill: #323232 } 
		.s1 { fill: #fe3370 } 
		.t2 { font-size: 12px;fill: #323232;font-family: "Segoe UI" } 
		.s3 { fill: #ffffff } 
	</style>
	<g id="timeline">
		<path id="Rectangle_490" class="s0" d="m355 7v4h-325v-4z"/>
		<g id="Layer">
			<path id="Rectangle_491-2" class="s1" d="m130 7v4h-100v-4z"/>
		</g>
		<text id="11:50" style="opacity: .6;transform: matrix(1,0,0,1,30,0)" >
			<tspan x="0" y="0" class="t2">11:50
</tspan>
		</text>
		<text id="-5:11:41" style="opacity: .6;transform: matrix(1,0,0,1,314,0)" >
			<tspan x="0" y="0" class="t2">-5:11:41
</tspan>
		</text>
		<text id="Chapter IX" style="opacity: .6;transform: matrix(1,0,0,1,30,27)" >
			<tspan x="0" y="0" class="t2">Chapter IX
</tspan>
		</text>
		<text id="Chapter XI in 44:44" style="opacity: .6;transform: matrix(1,0,0,1,236,27)" >
			<tspan x="0" y="0" class="t2">Chapter XI in 44:44
</tspan>
		</text>
		<g id="Layer">
			<path id="Ellipse_219-2" class="s1" d="m133 15c-3.3 0-6-2.7-6-6 0-3.3 2.7-6 6-6 3.3 0 6 2.7 6 6 0 3.3-2.7 6-6 6z"/>
		</g>
		<path id="Ellipse_220" class="s3" d="m133 12c-1.7 0-3-1.3-3-3 0-1.7 1.3-3 3-3 1.7 0 3 1.3 3 3 0 1.7-1.3 3-3 3z"/>
	</g>
</svg>