<svg xmlns="http://www.w3.org/2000/svg" width="26" height="23.833" viewBox="0 0 26 23.833">
  <g id="Catalogue" transform="translate(5055.9 -2276)" opacity="0.24">
    <path id="Path_183" data-name="Path 183" d="M-170.9,221.643v16.792a1.515,1.515,0,0,1-1.52,1.5h-5.461a5.7,5.7,0,0,0-3.475,1.167,4.214,4.214,0,0,1-2.575.89,4.214,4.214,0,0,1-2.575-.89,5.639,5.639,0,0,0-3.475-1.167h-5.4a1.515,1.515,0,0,1-1.52-1.5V221.643a1.515,1.515,0,0,1,1.52-1.5h1.024v14.8a.979.979,0,0,0,1.055,1.074h2.544a11.862,11.862,0,0,1,3.878.553,5.856,5.856,0,0,1,2.327,1.412.882.882,0,0,0,1.3.031,6.673,6.673,0,0,1,3.847-1.781,28.972,28.972,0,0,1,4.313-.184h.652a.953.953,0,0,0,1.055-1.074V220.2h.993A1.419,1.419,0,0,1-170.9,221.643Zm-21.656-3.438V234.2s4.964-.4,7.695,1.259V219.463C-187.592,217.806-192.556,218.2-192.556,218.2Zm9.587,1.259v15.994c2.73-1.658,7.695-1.259,7.695-1.259V218.2S-180.239,217.806-182.969,219.463Z" transform="translate(-4859 2057.837)" fill="#323232"/>
  </g>
</svg>
