<svg xmlns="http://www.w3.org/2000/svg" width="20" height="18" viewBox="0 0 20 18">
  <path id="Path_176" data-name="Path 176" d="M19.4,31.1a2.255,2.255,0,1,1,2.255,2.226A2.245,2.245,0,0,1,19.4,31.1Zm2.255,9A2.226,2.226,0,1,0,19.4,37.874,2.245,2.245,0,0,0,21.655,40.1Zm16.83-3.129H26.753a.936.936,0,1,0,0,1.871h11.7a.942.942,0,0,0,.948-.935A.915.915,0,0,0,38.485,36.971Zm0-13.581H26.753a.936.936,0,1,0,0,1.871h11.7a.936.936,0,0,0,.033-1.871ZM19.4,24.326A2.255,2.255,0,1,0,21.655,22.1,2.245,2.245,0,0,0,19.4,24.326Zm19.085,5.839H26.753a.936.936,0,1,0,0,1.871h11.7a.936.936,0,0,0,.033-1.871Z" transform="translate(-19.4 -22.1)"/>
</svg>
