<svg xmlns="http://www.w3.org/2000/svg" width="32.29" height="26" viewBox="0 0 32.29 26">
  <g id="home" transform="translate(-125.552 -309.766)">
    <path id="Subtraction_2" data-name="Subtraction 2" d="M10.082,23.129H5.93V10.3a2,2,0,0,0-2-2H0V1A1,1,0,0,1,1,0H12.64a1,1,0,0,1,1,1V22.128a1,1,0,0,1-1,1h-.778V2.668a.89.89,0,0,0-1.779,0v20.46Z" transform="translate(148.197 309.766) rotate(45)" fill="#fe3370"/>
    <path id="Subtraction_3" data-name="Subtraction 3" d="M10.378,13.641H1a1,1,0,0,1-1-1V1A1,1,0,0,1,1,0H12.64a1,1,0,0,1,1,1V12.64a1,1,0,0,1-1,1h-.482V2.372a.89.89,0,1,0-1.779,0V13.64Z" transform="translate(135.198 310.185) rotate(45)" fill="#fe3370"/>
  </g>
</svg>
