<svg xmlns="http://www.w3.org/2000/svg" width="26" height="26" viewBox="0 0 26 26">
  <g id="profile" transform="translate(181.3 -230.7)">
    <path id="Path_187" data-name="Path 187" d="M-159.106,234.506A12.815,12.815,0,0,0-168.3,230.7a12.815,12.815,0,0,0-9.194,3.806A12.815,12.815,0,0,0-181.3,243.7a12.815,12.815,0,0,0,3.806,9.194A12.815,12.815,0,0,0-168.3,256.7a12.815,12.815,0,0,0,9.194-3.806A12.815,12.815,0,0,0-155.3,243.7,13.02,13.02,0,0,0-159.106,234.506Zm-1.779,16.411c-1.977-1.236-4.053-2.224-4.053-2.224a1.69,1.69,0,0,1-.593-1.186,1.682,1.682,0,0,1-.049-.494c2.125-1.829,1.681-5.833,1.681-5.833-.2-4.449-3.954-4.449-4.3-4.4-.346,0-4.1-.049-4.3,4.4,0,0-.445,3.954,1.681,5.833,0,.148-.049.346-.049.494a1.69,1.69,0,0,1-.593,1.186s-2.125,1.038-4.053,2.224a10.244,10.244,0,0,1-2.916-7.217A10.358,10.358,0,0,1-168.1,233.369,10.358,10.358,0,0,1-157.771,243.7,11.624,11.624,0,0,1-160.886,250.917Z" fill="#fe3370"/>
  </g>
</svg>
